<mxfile host="app.diagrams.net" agent="Mozilla/5.0 (Windows NT 10.0; Win64; x64) AppleWebKit/537.36 (KHTML, like Gecko) Chrome/135.0.0.0 Safari/537.36" version="26.2.13">
  <diagram name="Page-1" id="e7e014a7-5840-1c2e-5031-d8a46d1fe8dd">
    <mxGraphModel dx="2009" dy="1031" grid="1" gridSize="10" guides="1" tooltips="1" connect="1" arrows="1" fold="1" page="1" pageScale="1" pageWidth="1169" pageHeight="826" background="none" math="0" shadow="0">
      <root>
        <mxCell id="0" />
        <mxCell id="1" parent="0" />
        <mxCell id="Jw3SZNHx7zEB2bhT7Alh-41" value="Khách hàng" style="swimlane;whiteSpace=wrap" vertex="1" parent="1">
          <mxGeometry x="439" y="128" width="321" height="1392" as="geometry" />
        </mxCell>
        <mxCell id="Jw3SZNHx7zEB2bhT7Alh-42" value="" style="edgeStyle=orthogonalEdgeStyle;rounded=0;orthogonalLoop=1;jettySize=auto;html=1;entryX=0.25;entryY=0;entryDx=0;entryDy=0;" edge="1" parent="Jw3SZNHx7zEB2bhT7Alh-41" source="Jw3SZNHx7zEB2bhT7Alh-43" target="Jw3SZNHx7zEB2bhT7Alh-45">
          <mxGeometry relative="1" as="geometry">
            <mxPoint x="123.5" y="52" as="targetPoint" />
          </mxGeometry>
        </mxCell>
        <mxCell id="Jw3SZNHx7zEB2bhT7Alh-43" value="" style="ellipse;shape=startState;fillColor=#000000;strokeColor=#ff0000;" vertex="1" parent="Jw3SZNHx7zEB2bhT7Alh-41">
          <mxGeometry x="28.5" y="27" width="50" height="50" as="geometry" />
        </mxCell>
        <mxCell id="Jw3SZNHx7zEB2bhT7Alh-45" value="Đăng nhập và duyệt sản phẩm" style="rounded=1;whiteSpace=wrap;html=1;" vertex="1" parent="Jw3SZNHx7zEB2bhT7Alh-41">
          <mxGeometry x="28.5" y="109" width="104.5" height="43" as="geometry" />
        </mxCell>
        <mxCell id="Jw3SZNHx7zEB2bhT7Alh-47" value="" style="edgeStyle=orthogonalEdgeStyle;rounded=0;orthogonalLoop=1;jettySize=auto;html=1;entryX=0.636;entryY=-0.007;entryDx=0;entryDy=0;entryPerimeter=0;" edge="1" parent="Jw3SZNHx7zEB2bhT7Alh-41" source="Jw3SZNHx7zEB2bhT7Alh-48" target="Jw3SZNHx7zEB2bhT7Alh-49">
          <mxGeometry relative="1" as="geometry" />
        </mxCell>
        <mxCell id="Jw3SZNHx7zEB2bhT7Alh-48" value="Chọn sản phẩm và số lượng" style="rounded=1;whiteSpace=wrap;html=1;" vertex="1" parent="Jw3SZNHx7zEB2bhT7Alh-41">
          <mxGeometry x="215" y="52" width="106" height="40" as="geometry" />
        </mxCell>
        <mxCell id="Jw3SZNHx7zEB2bhT7Alh-49" value="Nhấp nút Add to Cart" style="rounded=1;whiteSpace=wrap;html=1;" vertex="1" parent="Jw3SZNHx7zEB2bhT7Alh-41">
          <mxGeometry x="203.25" y="112" width="102.25" height="40" as="geometry" />
        </mxCell>
        <mxCell id="Jw3SZNHx7zEB2bhT7Alh-50" value="Hiển thị thông báo hết hàng" style="rounded=1;whiteSpace=wrap;html=1;" vertex="1" parent="Jw3SZNHx7zEB2bhT7Alh-41">
          <mxGeometry x="141" y="172" width="99" height="40" as="geometry" />
        </mxCell>
        <mxCell id="Jw3SZNHx7zEB2bhT7Alh-51" value="" style="endArrow=classic;html=1;rounded=0;entryX=0;entryY=0.75;entryDx=0;entryDy=0;exitX=0.25;exitY=0;exitDx=0;exitDy=0;" edge="1" parent="Jw3SZNHx7zEB2bhT7Alh-41" source="Jw3SZNHx7zEB2bhT7Alh-50" target="Jw3SZNHx7zEB2bhT7Alh-48">
          <mxGeometry width="50" height="50" relative="1" as="geometry">
            <mxPoint x="41" y="272" as="sourcePoint" />
            <mxPoint x="91" y="222" as="targetPoint" />
            <Array as="points">
              <mxPoint x="166" y="82" />
            </Array>
          </mxGeometry>
        </mxCell>
        <mxCell id="Jw3SZNHx7zEB2bhT7Alh-59" value="" style="ellipse;whiteSpace=wrap;html=1;aspect=fixed;fillColor=#000000;strokeColor=#FF3333;" vertex="1" parent="Jw3SZNHx7zEB2bhT7Alh-41">
          <mxGeometry x="212" y="1032" width="44" height="44" as="geometry" />
        </mxCell>
        <mxCell id="Jw3SZNHx7zEB2bhT7Alh-97" value="" style="endArrow=classic;html=1;rounded=0;exitX=0.5;exitY=0;exitDx=0;exitDy=0;entryX=0;entryY=0.5;entryDx=0;entryDy=0;" edge="1" parent="Jw3SZNHx7zEB2bhT7Alh-41" source="Jw3SZNHx7zEB2bhT7Alh-45" target="Jw3SZNHx7zEB2bhT7Alh-48">
          <mxGeometry width="50" height="50" relative="1" as="geometry">
            <mxPoint x="291" y="272" as="sourcePoint" />
            <mxPoint x="341" y="222" as="targetPoint" />
            <Array as="points">
              <mxPoint x="81" y="72" />
            </Array>
          </mxGeometry>
        </mxCell>
        <mxCell id="Jw3SZNHx7zEB2bhT7Alh-79" value="Tiếp tục mua sắm?" style="rhombus;whiteSpace=wrap;html=1;rounded=1;fillColor=#FFFF66;" vertex="1" parent="Jw3SZNHx7zEB2bhT7Alh-41">
          <mxGeometry x="200.25" y="262" width="80" height="80" as="geometry" />
        </mxCell>
        <mxCell id="Jw3SZNHx7zEB2bhT7Alh-80" value="Nhấp vào icon giỏ hàng" style="rounded=1;whiteSpace=wrap;html=1;" vertex="1" parent="Jw3SZNHx7zEB2bhT7Alh-41">
          <mxGeometry x="203.25" y="434" width="80" height="38" as="geometry" />
        </mxCell>
        <mxCell id="Jw3SZNHx7zEB2bhT7Alh-116" value="" style="endArrow=classic;html=1;rounded=0;exitX=0.5;exitY=0;exitDx=0;exitDy=0;entryX=0.5;entryY=1;entryDx=0;entryDy=0;" edge="1" parent="Jw3SZNHx7zEB2bhT7Alh-41" source="Jw3SZNHx7zEB2bhT7Alh-79" target="Jw3SZNHx7zEB2bhT7Alh-45">
          <mxGeometry width="50" height="50" relative="1" as="geometry">
            <mxPoint x="241" y="312" as="sourcePoint" />
            <mxPoint x="291" y="262" as="targetPoint" />
            <Array as="points">
              <mxPoint x="241" y="232" />
              <mxPoint x="81" y="232" />
            </Array>
          </mxGeometry>
        </mxCell>
        <mxCell id="Jw3SZNHx7zEB2bhT7Alh-117" value="Có" style="edgeLabel;html=1;align=center;verticalAlign=middle;resizable=0;points=[];" vertex="1" connectable="0" parent="Jw3SZNHx7zEB2bhT7Alh-116">
          <mxGeometry x="-0.4868" y="-1" relative="1" as="geometry">
            <mxPoint x="1" as="offset" />
          </mxGeometry>
        </mxCell>
        <mxCell id="Jw3SZNHx7zEB2bhT7Alh-119" value="" style="endArrow=classic;html=1;rounded=0;exitX=0.5;exitY=1;exitDx=0;exitDy=0;entryX=0.5;entryY=0;entryDx=0;entryDy=0;strokeColor=#FF3333;" edge="1" parent="Jw3SZNHx7zEB2bhT7Alh-41" source="Jw3SZNHx7zEB2bhT7Alh-79" target="Jw3SZNHx7zEB2bhT7Alh-80">
          <mxGeometry width="50" height="50" relative="1" as="geometry">
            <mxPoint x="281" y="442" as="sourcePoint" />
            <mxPoint x="331" y="392" as="targetPoint" />
          </mxGeometry>
        </mxCell>
        <mxCell id="Jw3SZNHx7zEB2bhT7Alh-120" value="&lt;font style=&quot;color: rgb(255, 51, 51);&quot;&gt;Không&lt;/font&gt;" style="edgeLabel;html=1;align=center;verticalAlign=middle;resizable=0;points=[];" vertex="1" connectable="0" parent="Jw3SZNHx7zEB2bhT7Alh-119">
          <mxGeometry x="-0.4058" relative="1" as="geometry">
            <mxPoint as="offset" />
          </mxGeometry>
        </mxCell>
        <mxCell id="Jw3SZNHx7zEB2bhT7Alh-124" value="Chọn hành động?" style="rhombus;whiteSpace=wrap;html=1;fillColor=#FFFF66;" vertex="1" parent="Jw3SZNHx7zEB2bhT7Alh-41">
          <mxGeometry x="41" y="452" width="80" height="80" as="geometry" />
        </mxCell>
        <mxCell id="Jw3SZNHx7zEB2bhT7Alh-127" value="Thay đổi số lượng sản phẩm" style="rounded=1;whiteSpace=wrap;html=1;" vertex="1" parent="Jw3SZNHx7zEB2bhT7Alh-41">
          <mxGeometry x="203.25" y="552" width="109" height="40" as="geometry" />
        </mxCell>
        <mxCell id="Jw3SZNHx7zEB2bhT7Alh-135" value="Hiển thị thông báo hết hàng" style="rounded=1;whiteSpace=wrap;html=1;" vertex="1" parent="Jw3SZNHx7zEB2bhT7Alh-41">
          <mxGeometry x="193" y="632" width="93.25" height="40" as="geometry" />
        </mxCell>
        <mxCell id="Jw3SZNHx7zEB2bhT7Alh-137" value="" style="endArrow=classic;html=1;rounded=0;exitX=0.5;exitY=0;exitDx=0;exitDy=0;entryX=0.331;entryY=1.04;entryDx=0;entryDy=0;entryPerimeter=0;" edge="1" parent="Jw3SZNHx7zEB2bhT7Alh-41" source="Jw3SZNHx7zEB2bhT7Alh-135" target="Jw3SZNHx7zEB2bhT7Alh-127">
          <mxGeometry width="50" height="50" relative="1" as="geometry">
            <mxPoint x="291" y="742" as="sourcePoint" />
            <mxPoint x="341" y="692" as="targetPoint" />
          </mxGeometry>
        </mxCell>
        <mxCell id="Jw3SZNHx7zEB2bhT7Alh-146" value="Nhấp nút Remove của sản phẩm" style="rounded=1;whiteSpace=wrap;html=1;" vertex="1" parent="Jw3SZNHx7zEB2bhT7Alh-41">
          <mxGeometry x="203.25" y="772" width="109" height="40" as="geometry" />
        </mxCell>
        <mxCell id="Jw3SZNHx7zEB2bhT7Alh-156" value="Nhấp nút Xóa giỏ hàng" style="rounded=1;whiteSpace=wrap;html=1;" vertex="1" parent="Jw3SZNHx7zEB2bhT7Alh-41">
          <mxGeometry x="203.25" y="892" width="109" height="40" as="geometry" />
        </mxCell>
        <mxCell id="Jw3SZNHx7zEB2bhT7Alh-167" value="Nhấp nút Proceed to Checkout" style="rounded=1;whiteSpace=wrap;html=1;" vertex="1" parent="Jw3SZNHx7zEB2bhT7Alh-41">
          <mxGeometry x="174" y="952" width="120" height="38" as="geometry" />
        </mxCell>
        <mxCell id="Jw3SZNHx7zEB2bhT7Alh-170" value="" style="endArrow=classic;html=1;rounded=0;exitX=0.5;exitY=1;exitDx=0;exitDy=0;entryX=0.5;entryY=0;entryDx=0;entryDy=0;" edge="1" parent="Jw3SZNHx7zEB2bhT7Alh-41" source="Jw3SZNHx7zEB2bhT7Alh-167" target="Jw3SZNHx7zEB2bhT7Alh-59">
          <mxGeometry width="50" height="50" relative="1" as="geometry">
            <mxPoint x="141" y="972" as="sourcePoint" />
            <mxPoint x="191" y="922" as="targetPoint" />
          </mxGeometry>
        </mxCell>
        <mxCell id="Jw3SZNHx7zEB2bhT7Alh-60" value="Hệ thống" style="swimlane;whiteSpace=wrap;fontColor=#000000;" vertex="1" parent="1">
          <mxGeometry x="760" y="128" width="375" height="1392" as="geometry" />
        </mxCell>
        <mxCell id="Jw3SZNHx7zEB2bhT7Alh-62" value="" style="edgeStyle=orthogonalEdgeStyle;rounded=0;orthogonalLoop=1;jettySize=auto;html=1;" edge="1" parent="Jw3SZNHx7zEB2bhT7Alh-60" source="Jw3SZNHx7zEB2bhT7Alh-63" target="Jw3SZNHx7zEB2bhT7Alh-64">
          <mxGeometry relative="1" as="geometry" />
        </mxCell>
        <mxCell id="Jw3SZNHx7zEB2bhT7Alh-63" value="Kiểm tra tồn kho" style="rounded=1;whiteSpace=wrap;html=1;" vertex="1" parent="Jw3SZNHx7zEB2bhT7Alh-60">
          <mxGeometry x="20" y="113" width="100" height="38" as="geometry" />
        </mxCell>
        <mxCell id="Jw3SZNHx7zEB2bhT7Alh-64" value="Còn đủ hàng?" style="rhombus;whiteSpace=wrap;html=1;rounded=1;fillColor=#FFFF66;" vertex="1" parent="Jw3SZNHx7zEB2bhT7Alh-60">
          <mxGeometry x="210" y="92" width="80" height="80" as="geometry" />
        </mxCell>
        <mxCell id="Jw3SZNHx7zEB2bhT7Alh-65" value="" style="edgeStyle=orthogonalEdgeStyle;rounded=0;orthogonalLoop=1;jettySize=auto;html=1;" edge="1" parent="Jw3SZNHx7zEB2bhT7Alh-60" source="Jw3SZNHx7zEB2bhT7Alh-66" target="Jw3SZNHx7zEB2bhT7Alh-71">
          <mxGeometry relative="1" as="geometry" />
        </mxCell>
        <mxCell id="Jw3SZNHx7zEB2bhT7Alh-66" value="Kiểm tra sản phẩm đã có trong giỏ hàng chưa" style="rounded=1;whiteSpace=wrap;html=1;" vertex="1" parent="Jw3SZNHx7zEB2bhT7Alh-60">
          <mxGeometry x="217" y="230" width="144" height="40" as="geometry" />
        </mxCell>
        <mxCell id="Jw3SZNHx7zEB2bhT7Alh-67" value="" style="endArrow=classic;html=1;rounded=0;exitX=1;exitY=0.5;exitDx=0;exitDy=0;entryX=0.5;entryY=0;entryDx=0;entryDy=0;" edge="1" parent="Jw3SZNHx7zEB2bhT7Alh-60" source="Jw3SZNHx7zEB2bhT7Alh-64" target="Jw3SZNHx7zEB2bhT7Alh-66">
          <mxGeometry width="50" height="50" relative="1" as="geometry">
            <mxPoint x="120" y="262" as="sourcePoint" />
            <mxPoint x="170" y="212" as="targetPoint" />
          </mxGeometry>
        </mxCell>
        <mxCell id="Jw3SZNHx7zEB2bhT7Alh-68" value="Có" style="edgeLabel;html=1;align=center;verticalAlign=middle;resizable=0;points=[];" vertex="1" connectable="0" parent="Jw3SZNHx7zEB2bhT7Alh-67">
          <mxGeometry x="-0.0455" relative="1" as="geometry">
            <mxPoint as="offset" />
          </mxGeometry>
        </mxCell>
        <mxCell id="Jw3SZNHx7zEB2bhT7Alh-69" value="" style="edgeStyle=orthogonalEdgeStyle;rounded=0;orthogonalLoop=1;jettySize=auto;html=1;strokeColor=#FF3333;exitX=0.5;exitY=1;exitDx=0;exitDy=0;" edge="1" parent="Jw3SZNHx7zEB2bhT7Alh-60" source="Jw3SZNHx7zEB2bhT7Alh-71" target="Jw3SZNHx7zEB2bhT7Alh-73">
          <mxGeometry relative="1" as="geometry">
            <Array as="points">
              <mxPoint x="170" y="290" />
              <mxPoint x="170" y="288" />
              <mxPoint x="300" y="288" />
            </Array>
          </mxGeometry>
        </mxCell>
        <mxCell id="Jw3SZNHx7zEB2bhT7Alh-70" value="&lt;font style=&quot;color: rgb(255, 51, 51);&quot;&gt;Không&lt;/font&gt;" style="edgeLabel;html=1;align=center;verticalAlign=middle;resizable=0;points=[];" vertex="1" connectable="0" parent="Jw3SZNHx7zEB2bhT7Alh-69">
          <mxGeometry x="-0.3727" y="1" relative="1" as="geometry">
            <mxPoint as="offset" />
          </mxGeometry>
        </mxCell>
        <mxCell id="Jw3SZNHx7zEB2bhT7Alh-71" value="Đã có trong giỏ hàng?" style="rhombus;whiteSpace=wrap;html=1;rounded=1;fillColor=#FFFF66;" vertex="1" parent="Jw3SZNHx7zEB2bhT7Alh-60">
          <mxGeometry x="70" y="210" width="80" height="80" as="geometry" />
        </mxCell>
        <mxCell id="Jw3SZNHx7zEB2bhT7Alh-72" value="" style="edgeStyle=orthogonalEdgeStyle;rounded=0;orthogonalLoop=1;jettySize=auto;html=1;exitX=0;exitY=0.5;exitDx=0;exitDy=0;" edge="1" parent="Jw3SZNHx7zEB2bhT7Alh-60" source="Jw3SZNHx7zEB2bhT7Alh-73" target="Jw3SZNHx7zEB2bhT7Alh-74">
          <mxGeometry relative="1" as="geometry">
            <Array as="points">
              <mxPoint x="220" y="331" />
            </Array>
          </mxGeometry>
        </mxCell>
        <mxCell id="Jw3SZNHx7zEB2bhT7Alh-73" value="Thêm sản phẩm mới vào giỏ hàng" style="whiteSpace=wrap;html=1;rounded=1;" vertex="1" parent="Jw3SZNHx7zEB2bhT7Alh-60">
          <mxGeometry x="240" y="310" width="120" height="42" as="geometry" />
        </mxCell>
        <mxCell id="Jw3SZNHx7zEB2bhT7Alh-74" value="Tính toán lại tổng giỏ hàng" style="whiteSpace=wrap;html=1;rounded=1;" vertex="1" parent="Jw3SZNHx7zEB2bhT7Alh-60">
          <mxGeometry x="160" y="392" width="90" height="40" as="geometry" />
        </mxCell>
        <mxCell id="Jw3SZNHx7zEB2bhT7Alh-98" value="Tăng số lượng sản phẩm hiện có" style="rounded=1;whiteSpace=wrap;html=1;" vertex="1" parent="Jw3SZNHx7zEB2bhT7Alh-60">
          <mxGeometry x="40" y="312" width="120" height="40" as="geometry" />
        </mxCell>
        <mxCell id="Jw3SZNHx7zEB2bhT7Alh-99" value="" style="endArrow=classic;html=1;rounded=0;entryX=0;entryY=0.5;entryDx=0;entryDy=0;exitX=0.03;exitY=0.53;exitDx=0;exitDy=0;exitPerimeter=0;" edge="1" parent="Jw3SZNHx7zEB2bhT7Alh-60" source="Jw3SZNHx7zEB2bhT7Alh-71" target="Jw3SZNHx7zEB2bhT7Alh-98">
          <mxGeometry width="50" height="50" relative="1" as="geometry">
            <mxPoint x="70" y="250" as="sourcePoint" />
            <mxPoint x="210" y="222" as="targetPoint" />
            <Array as="points">
              <mxPoint x="20" y="252" />
              <mxPoint x="20" y="332" />
            </Array>
          </mxGeometry>
        </mxCell>
        <mxCell id="Jw3SZNHx7zEB2bhT7Alh-107" value="Có" style="edgeLabel;html=1;align=center;verticalAlign=middle;resizable=0;points=[];" vertex="1" connectable="0" parent="Jw3SZNHx7zEB2bhT7Alh-99">
          <mxGeometry x="0.402" y="2" relative="1" as="geometry">
            <mxPoint as="offset" />
          </mxGeometry>
        </mxCell>
        <mxCell id="Jw3SZNHx7zEB2bhT7Alh-108" value="" style="endArrow=classic;html=1;rounded=0;exitX=1.021;exitY=0.63;exitDx=0;exitDy=0;exitPerimeter=0;" edge="1" parent="Jw3SZNHx7zEB2bhT7Alh-60" source="Jw3SZNHx7zEB2bhT7Alh-98">
          <mxGeometry width="50" height="50" relative="1" as="geometry">
            <mxPoint x="160" y="392" as="sourcePoint" />
            <mxPoint x="190" y="392" as="targetPoint" />
            <Array as="points">
              <mxPoint x="190" y="337" />
            </Array>
          </mxGeometry>
        </mxCell>
        <mxCell id="Jw3SZNHx7zEB2bhT7Alh-110" value="Hiển thị thông báo thêm thành công" style="rounded=1;whiteSpace=wrap;html=1;" vertex="1" parent="Jw3SZNHx7zEB2bhT7Alh-60">
          <mxGeometry x="20" y="392" width="110" height="40" as="geometry" />
        </mxCell>
        <mxCell id="Jw3SZNHx7zEB2bhT7Alh-111" value="" style="endArrow=classic;html=1;rounded=0;exitX=0;exitY=0.5;exitDx=0;exitDy=0;entryX=1;entryY=0.5;entryDx=0;entryDy=0;" edge="1" parent="Jw3SZNHx7zEB2bhT7Alh-60" source="Jw3SZNHx7zEB2bhT7Alh-74" target="Jw3SZNHx7zEB2bhT7Alh-110">
          <mxGeometry width="50" height="50" relative="1" as="geometry">
            <mxPoint x="250" y="452" as="sourcePoint" />
            <mxPoint x="300" y="402" as="targetPoint" />
            <Array as="points">
              <mxPoint x="130" y="412" />
            </Array>
          </mxGeometry>
        </mxCell>
        <mxCell id="Jw3SZNHx7zEB2bhT7Alh-121" value="Hiển thị trang giỏ hàng" style="rounded=1;whiteSpace=wrap;html=1;" vertex="1" parent="Jw3SZNHx7zEB2bhT7Alh-60">
          <mxGeometry x="40" y="472" width="120" height="40" as="geometry" />
        </mxCell>
        <mxCell id="Jw3SZNHx7zEB2bhT7Alh-133" value="" style="edgeStyle=orthogonalEdgeStyle;rounded=0;orthogonalLoop=1;jettySize=auto;html=1;" edge="1" parent="Jw3SZNHx7zEB2bhT7Alh-60" source="Jw3SZNHx7zEB2bhT7Alh-130" target="Jw3SZNHx7zEB2bhT7Alh-132">
          <mxGeometry relative="1" as="geometry" />
        </mxCell>
        <mxCell id="Jw3SZNHx7zEB2bhT7Alh-130" value="Kiểm tra tồn kho với số lượng mới" style="rounded=1;whiteSpace=wrap;html=1;" vertex="1" parent="Jw3SZNHx7zEB2bhT7Alh-60">
          <mxGeometry x="41" y="552" width="109" height="40" as="geometry" />
        </mxCell>
        <mxCell id="Jw3SZNHx7zEB2bhT7Alh-132" value="Còn đủ hàng?" style="rhombus;whiteSpace=wrap;html=1;rounded=1;fillColor=#FFFF66;" vertex="1" parent="Jw3SZNHx7zEB2bhT7Alh-60">
          <mxGeometry x="244.5" y="532" width="80" height="80" as="geometry" />
        </mxCell>
        <mxCell id="Jw3SZNHx7zEB2bhT7Alh-139" value="Cập nhật số lượng và tính lại tổng tiền" style="rounded=1;whiteSpace=wrap;html=1;" vertex="1" parent="Jw3SZNHx7zEB2bhT7Alh-60">
          <mxGeometry x="250" y="712" width="110" height="38" as="geometry" />
        </mxCell>
        <mxCell id="Jw3SZNHx7zEB2bhT7Alh-140" value="" style="endArrow=classic;html=1;rounded=0;entryX=0.641;entryY=0.014;entryDx=0;entryDy=0;entryPerimeter=0;" edge="1" parent="Jw3SZNHx7zEB2bhT7Alh-60">
          <mxGeometry width="50" height="50" relative="1" as="geometry">
            <mxPoint x="322" y="572" as="sourcePoint" />
            <mxPoint x="321.51" y="712.5319999999999" as="targetPoint" />
          </mxGeometry>
        </mxCell>
        <mxCell id="Jw3SZNHx7zEB2bhT7Alh-141" value="Hiển thị thông báo cập nhật thành công" style="rounded=1;whiteSpace=wrap;html=1;" vertex="1" parent="Jw3SZNHx7zEB2bhT7Alh-60">
          <mxGeometry x="41" y="712" width="120" height="38" as="geometry" />
        </mxCell>
        <mxCell id="Jw3SZNHx7zEB2bhT7Alh-142" value="" style="endArrow=classic;html=1;rounded=0;exitX=0;exitY=0.5;exitDx=0;exitDy=0;entryX=1;entryY=0.5;entryDx=0;entryDy=0;" edge="1" parent="Jw3SZNHx7zEB2bhT7Alh-60" source="Jw3SZNHx7zEB2bhT7Alh-139" target="Jw3SZNHx7zEB2bhT7Alh-141">
          <mxGeometry width="50" height="50" relative="1" as="geometry">
            <mxPoint x="100" y="752" as="sourcePoint" />
            <mxPoint x="150" y="702" as="targetPoint" />
          </mxGeometry>
        </mxCell>
        <mxCell id="Jw3SZNHx7zEB2bhT7Alh-149" value="Xóa sản phẩm khỏi giỏ hàng" style="rounded=1;whiteSpace=wrap;html=1;" vertex="1" parent="Jw3SZNHx7zEB2bhT7Alh-60">
          <mxGeometry x="60" y="772" width="100" height="40" as="geometry" />
        </mxCell>
        <mxCell id="Jw3SZNHx7zEB2bhT7Alh-151" value="Tính lại tổng tiền giỏ hàng" style="rounded=1;whiteSpace=wrap;html=1;" vertex="1" parent="Jw3SZNHx7zEB2bhT7Alh-60">
          <mxGeometry x="200" y="772" width="120" height="40" as="geometry" />
        </mxCell>
        <mxCell id="Jw3SZNHx7zEB2bhT7Alh-152" value="" style="endArrow=classic;html=1;rounded=0;exitX=1;exitY=0.5;exitDx=0;exitDy=0;entryX=0;entryY=0.5;entryDx=0;entryDy=0;" edge="1" parent="Jw3SZNHx7zEB2bhT7Alh-60" source="Jw3SZNHx7zEB2bhT7Alh-149" target="Jw3SZNHx7zEB2bhT7Alh-151">
          <mxGeometry width="50" height="50" relative="1" as="geometry">
            <mxPoint x="150" y="792" as="sourcePoint" />
            <mxPoint x="200" y="742" as="targetPoint" />
          </mxGeometry>
        </mxCell>
        <mxCell id="Jw3SZNHx7zEB2bhT7Alh-153" value="Hiển thị thông báo xóa thành công" style="rounded=1;whiteSpace=wrap;html=1;" vertex="1" parent="Jw3SZNHx7zEB2bhT7Alh-60">
          <mxGeometry x="50" y="832" width="120" height="38" as="geometry" />
        </mxCell>
        <mxCell id="Jw3SZNHx7zEB2bhT7Alh-154" value="" style="endArrow=classic;html=1;rounded=0;exitX=0.5;exitY=1;exitDx=0;exitDy=0;entryX=1;entryY=0.5;entryDx=0;entryDy=0;" edge="1" parent="Jw3SZNHx7zEB2bhT7Alh-60" source="Jw3SZNHx7zEB2bhT7Alh-151" target="Jw3SZNHx7zEB2bhT7Alh-153">
          <mxGeometry width="50" height="50" relative="1" as="geometry">
            <mxPoint x="120" y="772" as="sourcePoint" />
            <mxPoint x="170" y="722" as="targetPoint" />
            <Array as="points">
              <mxPoint x="260" y="851" />
            </Array>
          </mxGeometry>
        </mxCell>
        <mxCell id="Jw3SZNHx7zEB2bhT7Alh-159" value="Xóa tất cả sản phẩm khỏi giỏ hàng" style="rounded=1;whiteSpace=wrap;html=1;" vertex="1" parent="Jw3SZNHx7zEB2bhT7Alh-60">
          <mxGeometry x="50" y="893" width="120" height="40" as="geometry" />
        </mxCell>
        <mxCell id="Jw3SZNHx7zEB2bhT7Alh-161" value="Đặt tổng tiền về 0" style="rounded=1;whiteSpace=wrap;html=1;" vertex="1" parent="Jw3SZNHx7zEB2bhT7Alh-60">
          <mxGeometry x="200" y="894" width="120" height="40" as="geometry" />
        </mxCell>
        <mxCell id="Jw3SZNHx7zEB2bhT7Alh-162" value="" style="endArrow=classic;html=1;rounded=0;exitX=1;exitY=0.5;exitDx=0;exitDy=0;entryX=0;entryY=0.5;entryDx=0;entryDy=0;" edge="1" parent="Jw3SZNHx7zEB2bhT7Alh-60" source="Jw3SZNHx7zEB2bhT7Alh-159" target="Jw3SZNHx7zEB2bhT7Alh-161">
          <mxGeometry width="50" height="50" relative="1" as="geometry">
            <mxPoint x="130" y="872" as="sourcePoint" />
            <mxPoint x="180" y="822" as="targetPoint" />
          </mxGeometry>
        </mxCell>
        <mxCell id="Jw3SZNHx7zEB2bhT7Alh-163" value="Hiển thị thông báo xóa thành công" style="rounded=1;whiteSpace=wrap;html=1;" vertex="1" parent="Jw3SZNHx7zEB2bhT7Alh-60">
          <mxGeometry x="50" y="951" width="120" height="38" as="geometry" />
        </mxCell>
        <mxCell id="Jw3SZNHx7zEB2bhT7Alh-164" value="" style="endArrow=classic;html=1;rounded=0;exitX=0.5;exitY=1;exitDx=0;exitDy=0;entryX=1;entryY=0.5;entryDx=0;entryDy=0;" edge="1" parent="Jw3SZNHx7zEB2bhT7Alh-60" source="Jw3SZNHx7zEB2bhT7Alh-161" target="Jw3SZNHx7zEB2bhT7Alh-163">
          <mxGeometry width="50" height="50" relative="1" as="geometry">
            <mxPoint x="130" y="872" as="sourcePoint" />
            <mxPoint x="180" y="822" as="targetPoint" />
            <Array as="points">
              <mxPoint x="260" y="972" />
            </Array>
          </mxGeometry>
        </mxCell>
        <mxCell id="Jw3SZNHx7zEB2bhT7Alh-88" value="" style="edgeStyle=orthogonalEdgeStyle;rounded=0;orthogonalLoop=1;jettySize=auto;html=1;" edge="1" parent="1" source="Jw3SZNHx7zEB2bhT7Alh-49" target="Jw3SZNHx7zEB2bhT7Alh-63">
          <mxGeometry relative="1" as="geometry" />
        </mxCell>
        <mxCell id="Jw3SZNHx7zEB2bhT7Alh-89" value="" style="endArrow=classic;html=1;rounded=0;entryX=1;entryY=0.5;entryDx=0;entryDy=0;exitX=0.5;exitY=1;exitDx=0;exitDy=0;strokeColor=#FF3333;" edge="1" parent="1" source="Jw3SZNHx7zEB2bhT7Alh-64" target="Jw3SZNHx7zEB2bhT7Alh-50">
          <mxGeometry width="50" height="50" relative="1" as="geometry">
            <mxPoint x="830" y="400" as="sourcePoint" />
            <mxPoint x="880" y="350" as="targetPoint" />
            <Array as="points">
              <mxPoint x="1010" y="320" />
            </Array>
          </mxGeometry>
        </mxCell>
        <mxCell id="Jw3SZNHx7zEB2bhT7Alh-90" value="&lt;font style=&quot;color: rgb(255, 51, 51);&quot;&gt;Không&lt;/font&gt;" style="edgeLabel;html=1;align=center;verticalAlign=middle;resizable=0;points=[];" vertex="1" connectable="0" parent="Jw3SZNHx7zEB2bhT7Alh-89">
          <mxGeometry x="-0.3402" y="1" relative="1" as="geometry">
            <mxPoint as="offset" />
          </mxGeometry>
        </mxCell>
        <mxCell id="Jw3SZNHx7zEB2bhT7Alh-118" value="" style="endArrow=classic;html=1;rounded=0;exitX=0;exitY=0.5;exitDx=0;exitDy=0;entryX=1;entryY=0.5;entryDx=0;entryDy=0;" edge="1" parent="1" source="Jw3SZNHx7zEB2bhT7Alh-110" target="Jw3SZNHx7zEB2bhT7Alh-79">
          <mxGeometry width="50" height="50" relative="1" as="geometry">
            <mxPoint x="710" y="550" as="sourcePoint" />
            <mxPoint x="760" y="500" as="targetPoint" />
            <Array as="points">
              <mxPoint x="719" y="540" />
            </Array>
          </mxGeometry>
        </mxCell>
        <mxCell id="Jw3SZNHx7zEB2bhT7Alh-122" value="" style="endArrow=classic;html=1;rounded=0;exitX=1;exitY=0.5;exitDx=0;exitDy=0;" edge="1" parent="1" source="Jw3SZNHx7zEB2bhT7Alh-80">
          <mxGeometry width="50" height="50" relative="1" as="geometry">
            <mxPoint x="780" y="560" as="sourcePoint" />
            <mxPoint x="870" y="600" as="targetPoint" />
            <Array as="points">
              <mxPoint x="870" y="580" />
            </Array>
          </mxGeometry>
        </mxCell>
        <mxCell id="Jw3SZNHx7zEB2bhT7Alh-125" value="" style="endArrow=classic;html=1;rounded=0;exitX=0;exitY=0.5;exitDx=0;exitDy=0;entryX=1;entryY=0.5;entryDx=0;entryDy=0;" edge="1" parent="1" source="Jw3SZNHx7zEB2bhT7Alh-121" target="Jw3SZNHx7zEB2bhT7Alh-124">
          <mxGeometry width="50" height="50" relative="1" as="geometry">
            <mxPoint x="650" y="630" as="sourcePoint" />
            <mxPoint x="700" y="580" as="targetPoint" />
            <Array as="points">
              <mxPoint x="600" y="620" />
            </Array>
          </mxGeometry>
        </mxCell>
        <mxCell id="Jw3SZNHx7zEB2bhT7Alh-126" value="" style="endArrow=none;html=1;rounded=0;entryX=0.5;entryY=1;entryDx=0;entryDy=0;" edge="1" parent="1" target="Jw3SZNHx7zEB2bhT7Alh-124">
          <mxGeometry width="50" height="50" relative="1" as="geometry">
            <mxPoint x="520" y="1340" as="sourcePoint" />
            <mxPoint x="700" y="820" as="targetPoint" />
          </mxGeometry>
        </mxCell>
        <mxCell id="Jw3SZNHx7zEB2bhT7Alh-128" value="" style="endArrow=classic;html=1;rounded=0;entryX=0;entryY=0.5;entryDx=0;entryDy=0;" edge="1" parent="1" target="Jw3SZNHx7zEB2bhT7Alh-127">
          <mxGeometry width="50" height="50" relative="1" as="geometry">
            <mxPoint x="520" y="700" as="sourcePoint" />
            <mxPoint x="680" y="820" as="targetPoint" />
          </mxGeometry>
        </mxCell>
        <mxCell id="Jw3SZNHx7zEB2bhT7Alh-129" value="Cập nhật số lượng" style="edgeLabel;html=1;align=center;verticalAlign=middle;resizable=0;points=[];" vertex="1" connectable="0" parent="Jw3SZNHx7zEB2bhT7Alh-128">
          <mxGeometry x="-0.1453" y="3" relative="1" as="geometry">
            <mxPoint as="offset" />
          </mxGeometry>
        </mxCell>
        <mxCell id="Jw3SZNHx7zEB2bhT7Alh-131" value="" style="edgeStyle=orthogonalEdgeStyle;rounded=0;orthogonalLoop=1;jettySize=auto;html=1;" edge="1" parent="1" source="Jw3SZNHx7zEB2bhT7Alh-127" target="Jw3SZNHx7zEB2bhT7Alh-130">
          <mxGeometry relative="1" as="geometry" />
        </mxCell>
        <mxCell id="Jw3SZNHx7zEB2bhT7Alh-134" value="" style="endArrow=classic;html=1;rounded=0;exitX=0.5;exitY=1;exitDx=0;exitDy=0;strokeColor=#FF3333;" edge="1" parent="1" source="Jw3SZNHx7zEB2bhT7Alh-132" target="Jw3SZNHx7zEB2bhT7Alh-135">
          <mxGeometry width="50" height="50" relative="1" as="geometry">
            <mxPoint x="870" y="870" as="sourcePoint" />
            <mxPoint x="650" y="760" as="targetPoint" />
            <Array as="points">
              <mxPoint x="1045" y="780" />
            </Array>
          </mxGeometry>
        </mxCell>
        <mxCell id="Jw3SZNHx7zEB2bhT7Alh-138" value="&lt;font style=&quot;color: rgb(255, 51, 51);&quot;&gt;Không&lt;/font&gt;" style="edgeLabel;html=1;align=center;verticalAlign=middle;resizable=0;points=[];" vertex="1" connectable="0" parent="Jw3SZNHx7zEB2bhT7Alh-134">
          <mxGeometry x="-0.1512" y="-1" relative="1" as="geometry">
            <mxPoint as="offset" />
          </mxGeometry>
        </mxCell>
        <mxCell id="Jw3SZNHx7zEB2bhT7Alh-144" value="" style="endArrow=classic;html=1;rounded=0;exitX=0;exitY=0.5;exitDx=0;exitDy=0;" edge="1" parent="1" source="Jw3SZNHx7zEB2bhT7Alh-141">
          <mxGeometry width="50" height="50" relative="1" as="geometry">
            <mxPoint x="660" y="880" as="sourcePoint" />
            <mxPoint x="500" y="859" as="targetPoint" />
          </mxGeometry>
        </mxCell>
        <mxCell id="Jw3SZNHx7zEB2bhT7Alh-145" value="" style="endArrow=classic;html=1;rounded=0;entryX=0;entryY=1;entryDx=0;entryDy=0;" edge="1" parent="1" target="Jw3SZNHx7zEB2bhT7Alh-124">
          <mxGeometry width="50" height="50" relative="1" as="geometry">
            <mxPoint x="500" y="1340" as="sourcePoint" />
            <mxPoint x="710" y="830" as="targetPoint" />
          </mxGeometry>
        </mxCell>
        <mxCell id="Jw3SZNHx7zEB2bhT7Alh-147" value="" style="endArrow=classic;html=1;rounded=0;entryX=0;entryY=0.5;entryDx=0;entryDy=0;" edge="1" parent="1" target="Jw3SZNHx7zEB2bhT7Alh-146">
          <mxGeometry width="50" height="50" relative="1" as="geometry">
            <mxPoint x="520" y="920" as="sourcePoint" />
            <mxPoint x="710" y="830" as="targetPoint" />
          </mxGeometry>
        </mxCell>
        <mxCell id="Jw3SZNHx7zEB2bhT7Alh-148" value="Xóa sản phẩm" style="edgeLabel;html=1;align=center;verticalAlign=middle;resizable=0;points=[];" vertex="1" connectable="0" parent="Jw3SZNHx7zEB2bhT7Alh-147">
          <mxGeometry x="-0.1241" y="2" relative="1" as="geometry">
            <mxPoint x="-1" as="offset" />
          </mxGeometry>
        </mxCell>
        <mxCell id="Jw3SZNHx7zEB2bhT7Alh-150" value="" style="endArrow=classic;html=1;rounded=0;exitX=1;exitY=0.5;exitDx=0;exitDy=0;entryX=0;entryY=0.5;entryDx=0;entryDy=0;" edge="1" parent="1" source="Jw3SZNHx7zEB2bhT7Alh-146" target="Jw3SZNHx7zEB2bhT7Alh-149">
          <mxGeometry width="50" height="50" relative="1" as="geometry">
            <mxPoint x="660" y="880" as="sourcePoint" />
            <mxPoint x="710" y="830" as="targetPoint" />
          </mxGeometry>
        </mxCell>
        <mxCell id="Jw3SZNHx7zEB2bhT7Alh-155" value="" style="endArrow=classic;html=1;rounded=0;exitX=0;exitY=0.5;exitDx=0;exitDy=0;" edge="1" parent="1" source="Jw3SZNHx7zEB2bhT7Alh-153">
          <mxGeometry width="50" height="50" relative="1" as="geometry">
            <mxPoint x="610" y="900" as="sourcePoint" />
            <mxPoint x="500" y="980" as="targetPoint" />
          </mxGeometry>
        </mxCell>
        <mxCell id="Jw3SZNHx7zEB2bhT7Alh-157" value="" style="endArrow=classic;html=1;rounded=0;entryX=0;entryY=0.5;entryDx=0;entryDy=0;" edge="1" parent="1" target="Jw3SZNHx7zEB2bhT7Alh-156">
          <mxGeometry width="50" height="50" relative="1" as="geometry">
            <mxPoint x="520" y="1040" as="sourcePoint" />
            <mxPoint x="700" y="1050" as="targetPoint" />
          </mxGeometry>
        </mxCell>
        <mxCell id="Jw3SZNHx7zEB2bhT7Alh-158" value="Xóa toàn bộ" style="edgeLabel;html=1;align=center;verticalAlign=middle;resizable=0;points=[];" vertex="1" connectable="0" parent="Jw3SZNHx7zEB2bhT7Alh-157">
          <mxGeometry x="-0.1764" y="-1" relative="1" as="geometry">
            <mxPoint as="offset" />
          </mxGeometry>
        </mxCell>
        <mxCell id="Jw3SZNHx7zEB2bhT7Alh-160" value="" style="endArrow=classic;html=1;rounded=0;exitX=1;exitY=0.5;exitDx=0;exitDy=0;entryX=0;entryY=0.5;entryDx=0;entryDy=0;" edge="1" parent="1" source="Jw3SZNHx7zEB2bhT7Alh-156" target="Jw3SZNHx7zEB2bhT7Alh-159">
          <mxGeometry width="50" height="50" relative="1" as="geometry">
            <mxPoint x="800" y="1040" as="sourcePoint" />
            <mxPoint x="850" y="990" as="targetPoint" />
          </mxGeometry>
        </mxCell>
        <mxCell id="Jw3SZNHx7zEB2bhT7Alh-166" value="" style="endArrow=classic;html=1;rounded=0;exitX=0;exitY=0.5;exitDx=0;exitDy=0;entryX=1;entryY=0.5;entryDx=0;entryDy=0;" edge="1" parent="1" source="Jw3SZNHx7zEB2bhT7Alh-163" target="Jw3SZNHx7zEB2bhT7Alh-59">
          <mxGeometry width="50" height="50" relative="1" as="geometry">
            <mxPoint x="670" y="1040" as="sourcePoint" />
            <mxPoint x="660.25" y="1120" as="targetPoint" />
            <Array as="points">
              <mxPoint x="750" y="1098" />
              <mxPoint x="750" y="1140" />
              <mxPoint x="750" y="1182" />
            </Array>
          </mxGeometry>
        </mxCell>
        <mxCell id="Jw3SZNHx7zEB2bhT7Alh-168" value="" style="endArrow=classic;html=1;rounded=0;entryX=0;entryY=0.5;entryDx=0;entryDy=0;" edge="1" parent="1" target="Jw3SZNHx7zEB2bhT7Alh-167">
          <mxGeometry width="50" height="50" relative="1" as="geometry">
            <mxPoint x="520" y="1100" as="sourcePoint" />
            <mxPoint x="630" y="1050" as="targetPoint" />
          </mxGeometry>
        </mxCell>
        <mxCell id="Jw3SZNHx7zEB2bhT7Alh-169" value="Thanh toán" style="edgeLabel;html=1;align=center;verticalAlign=middle;resizable=0;points=[];" vertex="1" connectable="0" parent="Jw3SZNHx7zEB2bhT7Alh-168">
          <mxGeometry x="0.1497" relative="1" as="geometry">
            <mxPoint as="offset" />
          </mxGeometry>
        </mxCell>
      </root>
    </mxGraphModel>
  </diagram>
</mxfile>
